<svg width="211" height="202" viewBox="0 0 211 202" fill="none" xmlns="http://www.w3.org/2000/svg">
<path d="M110.82 56.49C100.91 61.12 93.6 70.38 91.71 81.49C91.65 82.8967 91.5033 84.2767 91.27 85.63C91.25 86.15 91.19 86.67 91.19 87.2C91.19 98.17 96.46 107.92 104.58 114.12C111.62 104.53 115.79 92.71 115.79 79.92C115.79 71.59 114 63.66 110.82 56.49Z" fill="#FF356E"/>
<path d="M72.16 110.63C67.82 112.65 63 113.82 57.9 113.82C39.21 113.82 24 98.61 24 79.92C24 61.24 39.21 46.03 57.9 46.03C65.61 46.03 72.7 48.65 78.41 53C83.24 46.43 89.42 40.91 96.54 36.86C86.28 27.65 72.74 22.03 57.9 22.03C25.97 22.03 0 48 0 79.92C0 111.85 25.97 137.82 57.9 137.82C68.27 137.82 78.01 135.06 86.44 130.26C80.4 124.83 75.51 118.15 72.16 110.63Z" fill="#FF356E"/>
<path d="M125.09 27.3C113.56 27.3 102.81 30.7 93.77 36.54C100.16 41.6 105.46 47.9701 109.25 55.2501C113.98 52.7401 119.37 51.3 125.09 51.3C143.78 51.3 158.98 66.51 158.98 85.2C158.98 103.88 143.78 119.09 125.09 119.09C106.4 119.09 91.19 103.88 91.19 85.2C91.19 83.32 91.38 81.5001 91.68 79.7101C90.97 68.8401 85.15 59.35 76.57 53.67C70.65 62.74 67.19 73.57 67.19 85.2C67.19 117.12 93.16 143.09 125.09 143.09C157.01 143.09 182.98 117.12 182.98 85.2C182.98 53.27 157.01 27.3 125.09 27.3Z" fill="#26A5FC"/>
<path d="M57.9 201.17C51.27 201.17 45.9 195.8 45.9 189.17V125.82C45.9 119.19 51.27 113.82 57.9 113.82C64.52 113.82 69.9 119.19 69.9 125.82V189.17C69.9 195.8 64.52 201.17 57.9 201.17Z" fill="#FF356E"/>
<path d="M88.4 178.27H27.96C21.33 178.27 15.96 172.9 15.96 166.27C15.96 159.64 21.33 154.27 27.96 154.27H88.4C95.03 154.27 100.4 159.64 100.4 166.27C100.4 172.9 95.03 178.27 88.4 178.27Z" fill="#FF356E"/>
<path d="M157.54 64.74C154.47 64.74 151.4 63.57 149.05 61.23C144.37 56.54 144.37 48.94 149.05 44.26L181.24 12.07C185.93 7.37999 193.53 7.37999 198.21 12.07C202.9 16.76 202.9 24.36 198.21 29.04L166.02 61.23C163.68 63.57 160.61 64.74 157.54 64.74Z" fill="#26A5FC"/>
<path d="M198.84 54.23C192.21 54.23 186.84 48.85 186.84 42.23V24H167.49C160.87 24 155.49 18.63 155.49 12C155.49 5.38 160.87 0 167.49 0H198.84C205.47 0 210.84 5.38 210.84 12V42.23C210.84 48.85 205.47 54.23 198.84 54.23Z" fill="#26A5FC"/>
<path d="M103.79 91.92C97.16 91.92 91.79 86.55 91.79 79.92C91.79 61.24 76.59 46.03 57.9 46.03C39.21 46.03 24 61.24 24 79.92C24 86.55 18.63 91.92 12 91.92C5.38 91.92 0 86.55 0 79.92C0 48 25.97 22.03 57.9 22.03C89.82 22.03 115.79 48 115.79 79.92C115.79 86.55 110.42 91.92 103.79 91.92Z" fill="#FF356E"/>
</svg>
