<svg width="144" height="144" viewBox="0 0 144 144" fill="none" xmlns="http://www.w3.org/2000/svg">
<path fill-rule="evenodd" clip-rule="evenodd" d="M57.89 143.08C25.97 143.08 0 117.11 0 85.19C0 53.27 25.97 27.29 57.89 27.29C89.82 27.29 115.79 53.27 115.79 85.19C115.79 117.11 89.82 143.08 57.89 143.08ZM57.89 51.29C39.2 51.29 24 66.5 24 85.19C24 103.88 39.2 119.08 57.89 119.08C76.58 119.08 91.79 103.88 91.79 85.19C91.79 66.5 76.58 51.29 57.89 51.29Z" fill="#26A5FC"/>
<path d="M90.34 64.74C87.27 64.74 84.2 63.56 81.86 61.22C77.17 56.54 77.17 48.94 81.86 44.25L114.04 12.06C118.73 7.38005 126.33 7.38005 131.01 12.06C135.7 16.75 135.7 24.3501 131.02 29.0401L98.83 61.22C96.49 63.56 93.42 64.74 90.34 64.74Z" fill="#26A5FC"/>
<path d="M131.65 54.22C125.02 54.22 119.65 48.85 119.65 42.22V24H100.3C93.67 24 88.3 18.63 88.3 12C88.3 5.37 93.67 0 100.3 0H131.65C138.27 0 143.65 5.37 143.65 12V42.22C143.65 48.85 138.27 54.22 131.65 54.22Z" fill="#26A5FC"/>
</svg>
